<?xml version="1.0" encoding="UTF-8" standalone="no"?><svg xmlns="http://www.w3.org/2000/svg" xmlns:xlink="http://www.w3.org/1999/xlink" fill="#38b6ff" height="32" preserveAspectRatio="xMidYMid meet" version="1" viewBox="0.0 0.0 32.0 32.0" width="32" zoomAndPan="magnify"><g id="change1_1"><path d="M25,10h-1V8c0-4.411-3.589-8-8-8S8,3.589,8,8c-4.411,0-8,3.589-8,8s3.589,8,8,8h5v-2H8c-3.309,0-6-2.691-6-6s2.691-6,6-6h1 c0.552,0,1-0.447,1-1V8c0-3.309,2.691-6,6-6s6,2.691,6,6v3c0,0.553,0.448,1,1,1h2c2.757,0,5,2.243,5,5s-2.243,5-5,5h-6v2h6 c3.86,0,7-3.141,7-7S28.86,10,25,10z" fill="inherit"/><path d="M21.293,19.707l1.414-1.414l-6-6c-0.391-0.391-1.023-0.391-1.414,0l-6,6l1.414,1.414L15,15.414V32h2V15.414L21.293,19.707z" fill="inherit"/></g></svg>