<?xml version="1.0" encoding="UTF-8" standalone="no"?><svg xmlns="http://www.w3.org/2000/svg" xmlns:xlink="http://www.w3.org/1999/xlink" fill="#38b6ff" height="32" preserveAspectRatio="xMidYMid meet" version="1" viewBox="0.0 0.0 32.0 32.0" width="32" zoomAndPan="magnify"><g id="change1_1"><path d="M27,32h-7c-0.552,0-1-0.447-1-1c0-1.654-1.346-3-3-3s-3,1.346-3,3c0,0.553-0.448,1-1,1H1c-0.552,0-1-0.447-1-1V20 c0-0.553,0.448-1,1-1c1.654,0,3-1.346,3-3s-1.346-3-3-3c-0.552,0-1-0.447-1-1V5c0-0.553,0.448-1,1-1h10.101 C11.565,1.721,13.585,0,16,0s4.435,1.721,4.899,4H27c0.552,0,1,0.447,1,1v6.101c2.279,0.465,4,2.484,4,4.899s-1.721,4.435-4,4.899 V31C28,31.553,27.552,32,27,32z M20.899,30H26V20c0-0.553,0.448-1,1-1c1.654,0,3-1.346,3-3s-1.346-3-3-3c-0.552,0-1-0.447-1-1V6h-6 c-0.552,0-1-0.447-1-1c0-1.654-1.346-3-3-3s-3,1.346-3,3c0,0.553-0.448,1-1,1H2v5.101C4.279,11.565,6,13.585,6,16 s-1.721,4.435-4,4.899V30h9.101c0.464-2.279,2.485-4,4.899-4S20.435,27.721,20.899,30z" fill="inherit"/></g></svg>