<?xml version="1.0" encoding="UTF-8" standalone="no"?><svg xmlns="http://www.w3.org/2000/svg" xmlns:xlink="http://www.w3.org/1999/xlink" fill="#000000" height="500" preserveAspectRatio="xMidYMid meet" version="1" viewBox="0.0 0.0 500.0 500.0" width="500" zoomAndPan="magnify"><defs><clipPath id="a"><path d="M 500 250 C 500 388.070312 388.070312 500 250 500 C 111.929688 500 0 388.070312 0 250 C 0 111.929688 111.929688 0 250 0 C 388.070312 0 500 111.929688 500 250 Z M 500 250"/></clipPath><clipPath id="b"><path d="M 500 250 C 500 388.070312 388.070312 500 250 500 C 111.929688 500 0 388.070312 0 250 C 0 111.929688 111.929688 0 250 0 C 388.070312 0 500 111.929688 500 250"/></clipPath><linearGradient gradientTransform="scale(500) rotate(45 -.104 .25)" gradientUnits="userSpaceOnUse" id="c" x1="-0.207" x2="1.207" xlink:actuate="onLoad" xlink:show="other" xlink:type="simple" y1="0" y2="0"><stop offset="0" stop-color="#00afe5"/><stop offset="0.125" stop-color="#00afe5"/><stop offset="0.156" stop-color="#00afe5"/><stop offset="0.172" stop-color="#00aee5"/><stop offset="0.188" stop-color="#00aee4"/><stop offset="0.203" stop-color="#00ade4"/><stop offset="0.219" stop-color="#00ade3"/><stop offset="0.234" stop-color="#00ace3"/><stop offset="0.25" stop-color="#00abe3"/><stop offset="0.266" stop-color="#00abe2"/><stop offset="0.281" stop-color="#00aae2"/><stop offset="0.297" stop-color="#00aae2"/><stop offset="0.313" stop-color="#00a9e1"/><stop offset="0.328" stop-color="#00a8e1"/><stop offset="0.344" stop-color="#00a8e0"/><stop offset="0.359" stop-color="#00a7e0"/><stop offset="0.375" stop-color="#00a7e0"/><stop offset="0.391" stop-color="#00a6df"/><stop offset="0.406" stop-color="#00a5df"/><stop offset="0.422" stop-color="#00a5df"/><stop offset="0.438" stop-color="#00a4de"/><stop offset="0.453" stop-color="#00a4de"/><stop offset="0.469" stop-color="#00a3dd"/><stop offset="0.484" stop-color="#00a2dd"/><stop offset="0.5" stop-color="#00a2dd"/><stop offset="0.516" stop-color="#00a1dc"/><stop offset="0.531" stop-color="#00a1dc"/><stop offset="0.547" stop-color="#00a0dc"/><stop offset="0.563" stop-color="#009fdb"/><stop offset="0.578" stop-color="#009fdb"/><stop offset="0.594" stop-color="#009eda"/><stop offset="0.609" stop-color="#009eda"/><stop offset="0.625" stop-color="#009dda"/><stop offset="0.641" stop-color="#009cd9"/><stop offset="0.656" stop-color="#009cd9"/><stop offset="0.672" stop-color="#009bd9"/><stop offset="0.688" stop-color="#009bd8"/><stop offset="0.703" stop-color="#009ad8"/><stop offset="0.719" stop-color="#0099d7"/><stop offset="0.734" stop-color="#0099d7"/><stop offset="0.75" stop-color="#0098d7"/><stop offset="0.766" stop-color="#0098d6"/><stop offset="0.781" stop-color="#0097d6"/><stop offset="0.797" stop-color="#0096d6"/><stop offset="0.813" stop-color="#0096d5"/><stop offset="0.828" stop-color="#0095d5"/><stop offset="0.844" stop-color="#0095d4"/><stop offset="0.875" stop-color="#0094d4"/><stop offset="1" stop-color="#0094d4"/></linearGradient></defs><g><g clip-path="url(#a)"><g clip-path="url(#b)"><path d="M 250 -250 L -250 250 L 250 750 L 750 250 Z M 250 -250" fill="url(#c)"/></g></g><g id="change1_1"><path d="M 357.78125 140.183594 C 356.832031 140.183594 355.851562 140.355469 354.875 140.726562 L 103.265625 236.332031 C 96.15625 239.03125 96.34375 249.152344 103.550781 251.585938 L 161.886719 271.296875 L 197.0625 341.703125 C 197.070312 341.722656 197.082031 341.738281 197.089844 341.761719 L 197.183594 341.945312 L 197.210938 341.9375 C 197.847656 343.234375 199.171875 344.074219 200.589844 344.074219 C 201.421875 344.074219 202.273438 343.796875 203.011719 343.171875 L 235.964844 315.226562 L 199.167969 287.300781 L 202.050781 323.976562 L 175.597656 269.210938 L 316.1875 184.761719 L 199.167969 287.300781 L 290.269531 356.433594 C 293.316406 358.746094 296.8125 359.816406 300.242188 359.816406 C 307.46875 359.816406 314.414062 355.074219 316.371094 347.246094 L 365.617188 150.269531 C 366.953125 144.929688 362.78125 140.183594 357.78125 140.183594" fill="#fafafa"/></g></g></svg>