<?xml version="1.0" encoding="UTF-8" standalone="no"?><svg xmlns="http://www.w3.org/2000/svg" xmlns:xlink="http://www.w3.org/1999/xlink" fill="#38b6ff" height="26" preserveAspectRatio="xMidYMid meet" version="1" viewBox="-0.1 0.0 32.1 26.0" width="32.1" zoomAndPan="magnify"><g id="change1_1"><path d="M16,20c-2.206,0-4-1.794-4-4s1.794-4,4-4c2.206,0,4,1.794,4,4S18.206,20,16,20z M16,14c-1.103,0-2,0.897-2,2s0.897,2,2,2 c1.103,0,2-0.897,2-2S17.103,14,16,14z" fill="inherit"/><path d="M16,26c-9.427,0-15.575-9.06-15.832-9.445c-0.224-0.336-0.224-0.773,0-1.109C0.425,15.06,6.573,6,16,6 s15.575,9.06,15.832,9.445c0.224,0.336,0.224,0.773,0,1.109C31.575,16.94,25.427,26,16,26z M2.238,16C3.692,17.897,8.917,24,16,24 c7.083,0,12.309-6.103,13.762-8C28.309,14.103,23.083,8,16,8C8.917,8,3.692,14.103,2.238,16z" fill="inherit"/><path d="M15 0H17V4H15z" fill="inherit"/><path d="M4.5 3.379H6.5V7.622H4.5z" fill="inherit" transform="rotate(-45.001 5.5 5.5)"/><path d="M24.379 4.5H28.622V6.5H24.379z" fill="inherit" transform="rotate(-45.001 26.5 5.5)"/></g></svg>